<svg width="24" height="24" viewBox="0 0 24 24" fill="none" xmlns="http://www.w3.org/2000/svg">
<path d="M9.59124 14.4563L9.91103 14.4576C14.5555 14.4981 17.1832 15.4361 17.1832 17.9983C17.1832 20.5061 14.6648 21.4736 10.2234 21.5546L9.59124 21.5603C4.74691 21.5603 2.00024 20.6394 2.00024 18.0183C2.00024 15.3937 4.75784 14.4563 9.59124 14.4563ZM9.59124 15.9563C5.57389 15.9563 3.50024 16.6612 3.50024 18.0183C3.50024 19.3667 5.56892 20.0603 9.59124 20.0603C13.6089 20.0603 15.6832 19.3552 15.6832 17.9983C15.6832 16.6505 13.6127 15.9563 9.59124 15.9563ZM17.5869 13.7481C18.1675 13.7876 18.7447 13.8708 19.2994 13.9938C20.4874 14.2301 21.3707 14.6713 21.7754 15.5204C22.0743 16.1491 22.0743 16.8806 21.7755 17.5092C21.373 18.3563 20.4989 18.7942 19.3041 19.04C18.8984 19.1234 18.5019 18.8622 18.4184 18.4565C18.335 18.0507 18.5962 17.6542 19.0019 17.5707C19.7708 17.4126 20.2825 17.1562 20.4207 16.8654C20.5258 16.6441 20.5258 16.3856 20.421 16.165C20.2819 15.8732 19.7675 15.6163 18.9909 15.4616C18.4936 15.3515 17.9907 15.279 17.4852 15.2446C17.0719 15.2165 16.7597 14.8587 16.7878 14.4455C16.8159 14.0322 17.1737 13.72 17.5869 13.7481ZM9.59124 2.49976C12.4393 2.49976 14.7262 4.78636 14.7262 7.63376C14.7262 10.482 12.4395 12.7688 9.59124 12.7688C6.74317 12.7688 4.45724 10.4821 4.45724 7.63376C4.45724 4.78622 6.74335 2.49976 9.59124 2.49976ZM16.0199 3.56936C18.2548 3.56936 20.0669 5.38183 20.0669 7.61636C20.0669 9.85157 18.2552 11.6634 16.0199 11.6634C15.6057 11.6634 15.2699 11.3276 15.2699 10.9134C15.2699 10.4991 15.6057 10.1634 16.0199 10.1634C17.4267 10.1634 18.5669 9.02314 18.5669 7.61636C18.5669 6.21019 17.4264 5.06936 16.0199 5.06936C15.6057 5.06936 15.2699 4.73357 15.2699 4.31936C15.2699 3.90514 15.6057 3.56936 16.0199 3.56936ZM9.59124 3.99976C7.57183 3.99976 5.95724 5.6146 5.95724 7.63376C5.95724 9.65379 7.5717 11.2688 9.59124 11.2688C11.611 11.2688 13.2262 9.65354 13.2262 7.63376C13.2262 5.61484 11.6109 3.99976 9.59124 3.99976Z" fill="#2B59FF"/>
</svg>
