<svg width="60" height="60" viewBox="0 0 60 60" fill="none" xmlns="http://www.w3.org/2000/svg">
<rect width="59.9537" height="60" rx="29.9769" fill="#12141D"/>
<path fill-rule="evenodd" clip-rule="evenodd" d="M44.8479 15.4473C45.0923 15.8302 45.0376 16.3314 44.7164 16.6526L28.2888 33.0803C27.9882 33.3808 27.5269 33.4501 27.1514 33.2512L15.5151 27.0909C15.1772 26.912 14.9762 26.551 15.0023 26.1696C15.0283 25.7881 15.2764 25.4577 15.6354 25.3264L43.6993 15.059C44.1259 14.903 44.6035 15.0645 44.8479 15.4473ZM18.3428 26.3974L27.4253 31.2057L40.2478 18.3833L18.3428 26.3974Z" fill="white"/>
<path fill-rule="evenodd" clip-rule="evenodd" d="M44.5523 15.152C44.9351 15.3964 45.0966 15.8741 44.9405 16.3006L34.6732 44.3645C34.5419 44.7236 34.2115 44.9717 33.83 44.9977C33.4486 45.0237 33.0875 44.8227 32.9087 44.4848L26.7482 32.8486C26.5494 32.473 26.6188 32.0117 26.9193 31.7112L43.347 15.2835C43.6682 14.9624 44.1694 14.9077 44.5523 15.152ZM41.6163 19.7522L28.7938 32.5746L33.6022 41.6572L41.6163 19.7522Z" fill="white"/>
</svg>
