<svg width="32" height="30" viewBox="0 0 32 30" fill="none" xmlns="http://www.w3.org/2000/svg">
<path d="M9.85616 12.5443H3.55746C3.39807 13.3412 3.31543 14.1618 3.31543 15C3.31543 16.523 3.58698 17.9811 4.08875 19.3329H9.80894C9.62594 17.1901 9.64365 14.9115 9.85616 12.5443ZM5.25758 21.6942C6.70386 23.9788 8.87033 25.7792 11.4323 26.771C10.8361 25.1948 10.3874 23.4947 10.0923 21.6942H5.25758ZM17.4654 2.44393C17.0049 2.3908 16.5327 2.36719 16.0604 2.36719C15.4819 2.36719 14.9093 2.40851 14.3544 2.47935C14.1596 3.05196 13.1383 6.1039 12.5244 10.183H19.8325C19.1124 6.51122 17.9671 3.61866 17.4654 2.44393ZM22.2292 10.183H27.8314C26.45 6.87132 23.6873 4.26211 20.2576 3.06967C20.8774 4.72256 21.6743 7.19599 22.2174 10.1299C22.2233 10.1476 22.2292 10.1653 22.2292 10.183ZM4.27765 10.183H10.1336C10.5645 7.14877 11.2139 4.65172 11.6566 3.14051C8.32133 4.36247 5.63538 6.93035 4.27765 10.183ZM28.5575 12.5443H22.5893C22.8609 14.8229 22.9022 17.0307 22.7133 19.1204L22.6956 19.3329H28.0262C28.5279 17.9811 28.7995 16.523 28.7995 15C28.7995 14.1618 28.7168 13.3412 28.5575 12.5443ZM14.319 27.5148C14.8857 27.5915 15.4701 27.6328 16.0604 27.6328C16.633 27.6328 17.1997 27.5915 17.7546 27.5207C18.8349 25.6376 19.5256 23.66 19.9388 21.6942H12.4949C12.8432 23.6718 13.4217 25.6494 14.319 27.5148ZM12.2292 12.5443C12.0344 14.5868 11.9636 16.9185 12.182 19.3329H20.3107C20.5704 16.9244 20.4701 14.5927 20.2103 12.5443H12.2292ZM20.7948 26.7296C23.3095 25.7261 25.4288 23.9492 26.8573 21.6942H22.3532C22.0167 23.4652 21.4972 25.1476 20.7948 26.7296Z" fill="#12141D"/>
<path d="M26.7333 4.39197C23.8821 1.55844 20.0863 0 16.0545 0C12.0226 0 8.23273 1.55844 5.38149 4.39197C2.52435 7.2255 0.954102 10.9917 0.954102 15C0.954102 19.0083 2.52435 22.7745 5.38149 25.608C8.23273 28.4357 12.0226 30 16.0545 30C20.0863 30 23.8762 28.4416 26.7274 25.608C29.5846 22.7745 31.1548 19.0083 31.1548 15C31.1548 10.9917 29.5846 7.2255 26.7333 4.39197ZM27.8372 10.183H22.2351C22.2292 10.1653 22.2292 10.1476 22.2233 10.1299C21.6802 7.19599 20.8833 4.72845 20.2634 3.06966C23.6932 4.2621 26.4559 6.87131 27.8372 10.183ZM14.3484 2.47934C14.9092 2.4026 15.4759 2.36718 16.0545 2.36718C16.5326 2.36718 16.999 2.39669 17.4594 2.44392C17.9671 3.61865 19.1064 6.51122 19.8266 10.183H12.5184C13.1324 6.09799 14.1536 3.04604 14.3484 2.47934ZM3.31538 15C3.31538 14.1617 3.39802 13.3412 3.55741 12.5443H9.85611C9.63769 14.9115 9.61998 17.1901 9.80298 19.3329H4.08869C3.58692 17.9811 3.31538 16.523 3.31538 15ZM5.25753 21.6942H10.0981C10.3933 23.4947 10.836 25.1948 11.4382 26.771C8.87028 25.7792 6.70381 23.9787 5.25753 21.6942ZM10.1336 10.183H4.2776C5.63533 6.93034 8.32128 4.36246 11.6566 3.1405C11.2138 4.65171 10.5645 7.14876 10.1336 10.183ZM17.7546 27.5207C17.1997 27.5915 16.633 27.6328 16.0604 27.6328C15.47 27.6328 14.8915 27.5915 14.3189 27.5148C13.4216 25.6493 12.8431 23.6718 12.5007 21.6942H19.9447C19.5255 23.66 18.829 25.6375 17.7546 27.5207ZM20.3107 19.3329H12.182C11.9635 16.9185 12.0344 14.5868 12.2292 12.5443H20.2103C20.47 14.5927 20.5704 16.9244 20.3107 19.3329ZM20.7947 26.7296C21.4913 25.1535 22.0167 23.4711 22.3532 21.6942H26.8573C25.4346 23.9492 23.3095 25.7261 20.7947 26.7296ZM22.6955 19.3329L22.7132 19.1204C22.9022 17.0307 22.8608 14.8229 22.5893 12.5443H28.5574C28.7168 13.3412 28.7994 14.1617 28.7994 15C28.7994 16.523 28.5279 17.9811 28.0261 19.3329H22.6955Z" fill="white"/>
</svg>
