<svg width="47" height="47" viewBox="0 0 47 47" fill="none" xmlns="http://www.w3.org/2000/svg">
<rect x="0.908936" y="0.889404" width="45.4201" height="45.4201" rx="13.626" fill="url(#paint0_linear_1_2798)"/>
<g clip-path="url(#clip0_1_2798)">
<path d="M13.3989 13.3798L33.838 13.3798C34.1391 13.3798 34.4279 13.4995 34.6409 13.7124C34.8538 13.9254 34.9735 14.2142 34.9735 14.5153V32.6833C34.9735 32.9845 34.8538 33.2733 34.6409 33.4863C34.4279 33.6992 34.1391 33.8188 33.838 33.8188H13.3989C13.0978 33.8188 12.809 33.6992 12.596 33.4863C12.3831 33.2733 12.2634 32.9845 12.2634 32.6833L12.2634 14.5153C12.2634 14.2142 12.3831 13.9254 12.596 13.7124C12.809 13.4995 13.0978 13.3798 13.3989 13.3798ZM32.7025 22.4638L14.5344 22.4638L14.5344 31.5478L32.7025 31.5478V22.4638ZM32.7025 20.1928V15.6508L14.5344 15.6508V20.1928L32.7025 20.1928ZM25.8894 27.0058L30.4314 27.0058V29.2768L25.8894 29.2768V27.0058Z" fill="#FCFCFC"/>
</g>
<defs>
<linearGradient id="paint0_linear_1_2798" x1="46.329" y1="0.889403" x2="2.03589" y2="47.3831" gradientUnits="userSpaceOnUse">
<stop stop-color="#547AFF"/>
<stop offset="1" stop-color="#413DFF"/>
</linearGradient>
<clipPath id="clip0_1_2798">
<rect width="27.252" height="27.252" fill="white" transform="translate(9.99292 9.97339)"/>
</clipPath>
</defs>
</svg>
