<svg width="61" height="60" viewBox="0 0 61 60" fill="none" xmlns="http://www.w3.org/2000/svg">
<rect x="0.908203" width="59.9537" height="60" rx="29.9769" fill="#12141D"/>
<path d="M14.9082 18.8V41.2C14.9082 41.9426 15.2032 42.6548 15.7283 43.1799C16.2534 43.705 16.9656 44 17.7082 44H45.7082C46.0795 44 46.4356 43.8525 46.6982 43.59C46.9607 43.3274 47.1082 42.9713 47.1082 42.6V23C47.1082 22.6287 46.9607 22.2726 46.6982 22.0101C46.4356 21.7475 46.0795 21.6 45.7082 21.6H17.7082C16.9656 21.6 16.2534 21.305 15.7283 20.7799C15.2032 20.2548 14.9082 19.5426 14.9082 18.8ZM14.9082 18.8C14.9082 18.0574 15.2032 17.3452 15.7283 16.8201C16.2534 16.295 16.9656 16 17.7082 16H41.5082" stroke="white" stroke-width="2.5" stroke-linecap="round" stroke-linejoin="round"/>
<path d="M39.4086 34.8992C40.5684 34.8992 41.5086 33.959 41.5086 32.7992C41.5086 31.6394 40.5684 30.6992 39.4086 30.6992C38.2488 30.6992 37.3086 31.6394 37.3086 32.7992C37.3086 33.959 38.2488 34.8992 39.4086 34.8992Z" fill="white"/>
</svg>
