<svg width="61" height="60" viewBox="0 0 61 60" fill="none" xmlns="http://www.w3.org/2000/svg">
<rect x="0.954102" width="59.9537" height="60" rx="29.9769" fill="#12141D"/>
<path d="M24.8562 27.5443H18.5575C18.3981 28.3412 18.3154 29.1618 18.3154 30C18.3154 31.523 18.587 32.9811 19.0887 34.3329H24.8089C24.6259 32.1901 24.6436 29.9115 24.8562 27.5443ZM20.2576 36.6942C21.7039 38.9788 23.8703 40.7792 26.4323 41.771C25.8361 40.1948 25.3874 38.4947 25.0923 36.6942H20.2576ZM32.4654 17.4439C32.0049 17.3908 31.5327 17.3672 31.0604 17.3672C30.4819 17.3672 29.9093 17.4085 29.3544 17.4793C29.1596 18.052 28.1383 21.1039 27.5244 25.183H34.8325C34.1124 21.5112 32.9671 18.6187 32.4654 17.4439ZM37.2292 25.183H42.8314C41.45 21.8713 38.6873 19.2621 35.2576 18.0697C35.8774 19.7226 36.6743 22.196 37.2174 25.1299C37.2233 25.1476 37.2292 25.1653 37.2292 25.183ZM19.2776 25.183H25.1336C25.5645 22.1488 26.2139 19.6517 26.6566 18.1405C23.3213 19.3625 20.6354 21.9304 19.2776 25.183ZM43.5575 27.5443H37.5893C37.8609 29.8229 37.9022 32.0307 37.7133 34.1204L37.6956 34.3329H43.0262C43.5279 32.9811 43.7995 31.523 43.7995 30C43.7995 29.1618 43.7168 28.3412 43.5575 27.5443ZM29.319 42.5148C29.8857 42.5915 30.4701 42.6328 31.0604 42.6328C31.633 42.6328 32.1997 42.5915 32.7546 42.5207C33.8349 40.6376 34.5256 38.66 34.9388 36.6942H27.4949C27.8432 38.6718 28.4217 40.6494 29.319 42.5148ZM27.2292 27.5443C27.0344 29.5868 26.9636 31.9185 27.182 34.3329H35.3107C35.5704 31.9244 35.4701 29.5927 35.2103 27.5443H27.2292ZM35.7948 41.7296C38.3095 40.7261 40.4288 38.9492 41.8573 36.6942H37.3532C37.0167 38.4652 36.4972 40.1476 35.7948 41.7296Z" fill="#12141D"/>
<path d="M41.7333 19.392C38.8821 16.5584 35.0863 15 31.0545 15C27.0226 15 23.2327 16.5584 20.3815 19.392C17.5243 22.2255 15.9541 25.9917 15.9541 30C15.9541 34.0083 17.5243 37.7745 20.3815 40.608C23.2327 43.4357 27.0226 45 31.0545 45C35.0863 45 38.8762 43.4416 41.7274 40.608C44.5846 37.7745 46.1548 34.0083 46.1548 30C46.1548 25.9917 44.5846 22.2255 41.7333 19.392ZM42.8372 25.183H37.2351C37.2292 25.1653 37.2292 25.1476 37.2233 25.1299C36.6802 22.196 35.8833 19.7285 35.2634 18.0697C38.6932 19.2621 41.4559 21.8713 42.8372 25.183ZM29.3484 17.4793C29.9092 17.4026 30.4759 17.3672 31.0545 17.3672C31.5326 17.3672 31.999 17.3967 32.4594 17.4439C32.9671 18.6187 34.1064 21.5112 34.8266 25.183H27.5184C28.1324 21.098 29.1536 18.046 29.3484 17.4793ZM18.3154 30C18.3154 29.1617 18.398 28.3412 18.5574 27.5443H24.8561C24.6377 29.9115 24.62 32.1901 24.803 34.3329H19.0887C18.5869 32.9811 18.3154 31.523 18.3154 30ZM20.2575 36.6942H25.0981C25.3933 38.4947 25.836 40.1948 26.4382 41.771C23.8703 40.7792 21.7038 38.9787 20.2575 36.6942ZM25.1336 25.183H19.2776C20.6353 21.9303 23.3213 19.3625 26.6566 18.1405C26.2138 19.6517 25.5645 22.1488 25.1336 25.183ZM32.7546 42.5207C32.1997 42.5915 31.633 42.6328 31.0604 42.6328C30.47 42.6328 29.8915 42.5915 29.3189 42.5148C28.4216 40.6493 27.8431 38.6718 27.5007 36.6942H34.9447C34.5255 38.66 33.829 40.6375 32.7546 42.5207ZM35.3107 34.3329H27.182C26.9635 31.9185 27.0344 29.5868 27.2292 27.5443H35.2103C35.47 29.5927 35.5704 31.9244 35.3107 34.3329ZM35.7947 41.7296C36.4913 40.1535 37.0167 38.4711 37.3532 36.6942H41.8573C40.4346 38.9492 38.3095 40.7261 35.7947 41.7296ZM37.6955 34.3329L37.7132 34.1204C37.9022 32.0307 37.8608 29.8229 37.5893 27.5443H43.5574C43.7168 28.3412 43.7994 29.1617 43.7994 30C43.7994 31.523 43.5279 32.9811 43.0261 34.3329H37.6955Z" fill="white"/>
</svg>
