<svg width="47" height="47" viewBox="0 0 47 47" fill="none" xmlns="http://www.w3.org/2000/svg">
<rect x="0.908936" y="0.645508" width="45.4201" height="45.4201" rx="13.626" fill="url(#paint0_linear_1_2813)"/>
<g clip-path="url(#clip0_1_2813)">
<path d="M32.7032 12.001C33.6066 12.001 34.4731 12.3599 35.112 12.9988C35.7508 13.6376 36.1097 14.5041 36.1097 15.4075V17.6785H33.8387V31.3046C33.8387 32.208 33.4798 33.0745 32.8409 33.7133C32.2021 34.3522 31.3356 34.7111 30.4322 34.7111H14.5352C13.6317 34.7111 12.7652 34.3522 12.1264 33.7133C11.4876 33.0745 11.1287 32.208 11.1287 31.3046V29.0336L29.2967 29.0336V31.3046C29.2967 31.5827 29.3988 31.8511 29.5836 32.059C29.7685 32.2668 30.0231 32.3996 30.2993 32.4321L30.4322 32.4401C30.7103 32.44 30.9787 32.3379 31.1866 32.1531C31.3944 31.9683 31.5272 31.7136 31.5597 31.4374L31.5677 31.3046L31.5677 14.272L16.8062 14.272C16.528 14.2721 16.2596 14.3742 16.0518 14.559C15.8439 14.7438 15.7112 14.9985 15.6786 15.2747L15.6707 15.4075L15.6707 26.7626H13.3997L13.3997 15.4075C13.3997 14.5041 13.7586 13.6376 14.3974 12.9988C15.0363 12.3599 15.9027 12.001 16.8062 12.001L32.7032 12.001Z" fill="#FCFCFC"/>
</g>
<defs>
<linearGradient id="paint0_linear_1_2813" x1="46.329" y1="0.645507" x2="2.03589" y2="47.1392" gradientUnits="userSpaceOnUse">
<stop stop-color="#547AFF"/>
<stop offset="1" stop-color="#413DFF"/>
</linearGradient>
<clipPath id="clip0_1_2813">
<rect width="27.252" height="27.252" fill="white" transform="translate(9.99292 9.72949)"/>
</clipPath>
</defs>
</svg>
