<svg width="38" height="38" viewBox="0 0 38 38" fill="none" xmlns="http://www.w3.org/2000/svg">
<rect width="38" height="38" rx="8" fill="#E0E6FF"/>
<path d="M16.5912 21.4563L16.911 21.4576C21.5555 21.4981 24.1832 22.4361 24.1832 24.9983C24.1832 27.5061 21.6648 28.4736 17.2234 28.5546L16.5912 28.5603C11.7469 28.5603 9.00024 27.6394 9.00024 25.0183C9.00024 22.3937 11.7578 21.4563 16.5912 21.4563ZM16.5912 22.9563C12.5739 22.9563 10.5002 23.6612 10.5002 25.0183C10.5002 26.3667 12.5689 27.0603 16.5912 27.0603C20.6089 27.0603 22.6832 26.3552 22.6832 24.9983C22.6832 23.6505 20.6127 22.9563 16.5912 22.9563ZM24.5869 20.7481C25.1675 20.7876 25.7447 20.8708 26.2994 20.9938C27.4874 21.2301 28.3707 21.6713 28.7754 22.5204C29.0743 23.1491 29.0743 23.8806 28.7755 24.5092C28.373 25.3563 27.4989 25.7942 26.3041 26.04C25.8984 26.1234 25.5019 25.8622 25.4184 25.4565C25.335 25.0507 25.5962 24.6542 26.0019 24.5707C26.7708 24.4126 27.2825 24.1562 27.4207 23.8654C27.5258 23.6441 27.5258 23.3856 27.421 23.165C27.2819 22.8732 26.7675 22.6163 25.9909 22.4616C25.4936 22.3515 24.9907 22.279 24.4852 22.2446C24.0719 22.2165 23.7597 21.8587 23.7878 21.4455C23.8159 21.0322 24.1737 20.72 24.5869 20.7481ZM16.5912 9.49976C19.4393 9.49976 21.7262 11.7864 21.7262 14.6338C21.7262 17.482 19.4395 19.7688 16.5912 19.7688C13.7432 19.7688 11.4572 17.4821 11.4572 14.6338C11.4572 11.7862 13.7434 9.49976 16.5912 9.49976ZM23.0199 10.5694C25.2548 10.5694 27.0669 12.3818 27.0669 14.6164C27.0669 16.8516 25.2552 18.6634 23.0199 18.6634C22.6057 18.6634 22.2699 18.3276 22.2699 17.9134C22.2699 17.4991 22.6057 17.1634 23.0199 17.1634C24.4267 17.1634 25.5669 16.0231 25.5669 14.6164C25.5669 13.2102 24.4264 12.0694 23.0199 12.0694C22.6057 12.0694 22.2699 11.7336 22.2699 11.3194C22.2699 10.9051 22.6057 10.5694 23.0199 10.5694ZM16.5912 10.9998C14.5718 10.9998 12.9572 12.6146 12.9572 14.6338C12.9572 16.6538 14.5717 18.2688 16.5912 18.2688C18.611 18.2688 20.2262 16.6535 20.2262 14.6338C20.2262 12.6148 18.6109 10.9998 16.5912 10.9998Z" fill="#2B59FF"/>
</svg>
