<svg width="28" height="17" viewBox="0 0 28 17" fill="none" xmlns="http://www.w3.org/2000/svg">
<path d="M17.7681 14.8885H10.2512V1.87976H17.7681V14.8885Z" fill="#FF5F00"/>
<path d="M10.7335 8.38409C10.7335 5.74521 12.0165 3.39457 14.0146 1.87972C12.5535 0.771994 10.7094 0.110828 8.70536 0.110828C3.96091 0.110828 0.11499 3.81483 0.11499 8.38409C0.11499 12.9533 3.96091 16.6573 8.70536 16.6573C10.7094 16.6573 12.5535 15.9962 14.0146 14.8885C12.0165 13.3736 10.7335 11.023 10.7335 8.38409Z" fill="#EB001B"/>
<path d="M27.9072 8.38409C27.9072 12.9533 24.0613 16.6573 19.3169 16.6573C17.3128 16.6573 15.4688 15.9962 14.0071 14.8885C16.0057 13.3736 17.2888 11.023 17.2888 8.38409C17.2888 5.74521 16.0057 3.39457 14.0071 1.87972C15.4688 0.771994 17.3128 0.110828 19.3169 0.110828C24.0613 0.110828 27.9072 3.81483 27.9072 8.38409Z" fill="#F79E1B"/>
</svg>
