<svg width="17" height="13" viewBox="0 0 17 13" fill="none" xmlns="http://www.w3.org/2000/svg">
<path d="M0.973644 6.64153C0.973644 7.35522 1.55706 7.93863 2.27075 7.93863H12.5267C13.2404 7.93863 13.8238 7.35522 13.8238 6.64153C13.8238 5.92783 13.2404 5.34442 12.5267 5.34442H2.27075C1.55706 5.34442 0.973644 5.92783 0.973644 6.64153ZM2.21214 3.25021H9.01035C9.72404 3.25021 10.3075 2.6668 10.3075 1.95311C10.3075 1.23942 9.72404 0.656006 9.01035 0.656006H2.21214C1.49845 0.656006 0.915039 1.23942 0.915039 1.95311C0.915039 2.6668 1.49845 3.25021 2.21214 3.25021ZM15.4569 10.0328H2.27075C1.55706 10.0328 0.973644 10.6162 0.973644 11.3299C0.973644 12.0436 1.55706 12.627 2.27075 12.627H15.4569C16.1706 12.627 16.754 12.0436 16.754 11.3299C16.754 10.6162 16.1706 10.0328 15.4569 10.0328Z" fill="#4732BA" stroke="#4732BA" stroke-width="0.25"/>
</svg>
