<?xml version="1.0" standalone="no"?>
<!DOCTYPE svg PUBLIC "-//W3C//DTD SVG 20010904//EN"
 "http://www.w3.org/TR/2001/REC-SVG-20010904/DTD/svg10.dtd">
<svg version="1.0" xmlns="http://www.w3.org/2000/svg"
 width="260.000000pt" height="260.000000pt" viewBox="0 0 260.000000 260.000000"
 preserveAspectRatio="xMidYMid meet">
<metadata>
Created by potrace 1.11, written by Peter Selinger 2001-2013
</metadata>
<g transform="translate(0.000000,260.000000) scale(0.100000,-0.100000)"
fill="#000000" stroke="none">
<path d="M0 1305 l0 -345 108 0 109 0 -1 155 c-1 85 0 155 0 155 1 0 50 -70
109 -155 l106 -155 109 0 109 0 3 152 3 152 105 -152 104 -153 110 3 111 3 1
140 c1 77 2 144 3 149 0 4 22 -22 47 -59 26 -37 72 -104 103 -149 l57 -81 111
-3 110 -3 -1 155 c-1 85 0 153 2 151 3 -3 106 -150 175 -250 l38 -55 109 0
110 0 2 238 3 237 178 -1 178 -1 28 -27 c36 -35 50 -80 39 -131 -16 -72 -62
-103 -155 -100 -42 1 -53 -1 -54 -14 -4 -75 -3 -185 2 -193 4 -6 44 -9 105 -6
116 4 175 28 231 93 69 80 93 154 89 270 -4 105 -37 181 -107 247 -80 75 -96
78 -450 78 l-307 0 0 -145 c0 -80 -2 -148 -5 -151 -3 -3 -11 5 -19 18 -7 14
-53 82 -102 151 l-89 127 -108 0 -108 0 -3 -152 -3 -152 -64 94 c-36 52 -67
97 -70 100 -3 3 -22 29 -41 57 l-35 53 -106 0 c-126 0 -115 16 -113 -167 1
-68 -2 -123 -7 -123 -5 0 -16 12 -26 28 -10 15 -55 80 -101 145 l-83 117 -108
0 -108 0 -1 -146 c0 -80 -2 -148 -5 -150 -2 -2 -34 42 -72 99 -38 56 -72 104
-75 107 -3 3 -18 24 -34 48 l-29 42 -108 0 -109 0 0 -345z"/>
</g>
</svg>
